<?xml version="1.0" encoding="utf-8"?>
<!-- Generator: Adobe Illustrator 19.1.0, SVG Export Plug-In . SVG Version: 6.00 Build 0)  -->
<svg version="1.1" id="Layer_1" xmlns="http://www.w3.org/2000/svg" xmlns:xlink="http://www.w3.org/1999/xlink" x="0px" y="0px"
	 viewBox="-362 244 302 32.8" style="enable-background:new -362 244 302 32.8;" xml:space="preserve">
<style type="text/css">
	.st0{fill:#FF9245;}
	.st1{fill:#424652;}
</style>
<g>
	<path class="st0" d="M-345.7,264.2l0-7.4l-7.4,0l0,7.4L-345.7,264.2z M-345.7,256.2l0-7.4l-7.4,0l0,7.4L-345.7,256.2z
		 M-353.6,264.2l0-7.4l-7.4,0l0,7.4L-353.6,264.2z"/>
	<path class="st1" d="M-349.4,258.9L-349.4,258.9c0.9,0,1.6,0.7,1.6,1.6s-0.7,1.6-1.6,1.6l0,0c-0.9,0-1.6-0.7-1.6-1.6
		C-351,259.7-350.3,258.9-349.4,258.9z"/>
	
		<rect x="-353" y="264.9" transform="matrix(4.149181e-03 1 -1 4.149181e-03 -79.3741 616.7601)" class="st0" width="7.3" height="7.3"/>
	<polygon points="-312.9,254.2 -319.1,254.2 -319.1,269.9 -322.9,269.9 -322.9,254.2 -329.1,254.2 -329.1,251 -312.9,251 	"/>
	<polygon points="-303.3,251 -298.5,260.1 -293.6,251 -289.5,251 -296.6,263.3 -296.6,269.9 -300.3,269.9 -300.3,263.2 -307.4,251 	
		"/>
	<polygon points="-282.4,269.9 -282.4,251 -278.6,251 -278.6,266.7 -268.6,266.7 -268.6,269.9 	"/>
	<polygon points="-247.4,266.7 -247.4,269.9 -261,269.9 -261,251 -247.7,251 -247.7,254.2 -257.2,254.2 -257.2,258.8 -249,258.8 
		-249,261.8 -257.2,261.8 -257.2,266.7 	"/>
	<path d="M-239.2,269.9V251h8.6c0.9,0,1.7,0.2,2.5,0.5c0.8,0.4,1.4,0.8,2,1.4c0.5,0.6,1,1.3,1.3,2s0.5,1.5,0.5,2.3
		c0,1.2-0.3,2.3-0.9,3.3c-0.6,1-1.5,1.7-2.6,2.2l4.6,7.1h-4.3l-4.1-6.3h-3.7v6.3H-239.2z M-235.4,260.3h4.7c0.3,0,0.7-0.1,1-0.2
		s0.6-0.4,0.8-0.7c0.2-0.3,0.4-0.6,0.5-1s0.2-0.8,0.2-1.2c0-0.4-0.1-0.9-0.2-1.2s-0.3-0.7-0.6-1c-0.2-0.3-0.5-0.5-0.9-0.6
		c-0.3-0.2-0.6-0.2-1-0.2h-4.6V260.3z"/>
	<path d="M-203.7,269.9V251h8.3c0.9,0,1.7,0.2,2.5,0.5c0.8,0.4,1.4,0.8,2,1.4c0.5,0.6,1,1.3,1.3,2c0.3,0.8,0.5,1.5,0.5,2.3
		c0,0.8-0.1,1.6-0.4,2.3c-0.3,0.8-0.7,1.4-1.2,2c-0.5,0.6-1.2,1.1-1.9,1.4c-0.8,0.4-1.6,0.5-2.5,0.5h-4.6v6.3H-203.7z M-199.9,260.3
		h4.4c0.7,0,1.3-0.3,1.7-0.8s0.7-1.3,0.7-2.2c0-0.5-0.1-0.9-0.2-1.3c-0.1-0.4-0.3-0.7-0.6-1c-0.2-0.3-0.5-0.5-0.8-0.6
		c-0.3-0.1-0.6-0.2-1-0.2h-4.2V260.3z"/>
	<path d="M-173.3,270c-1.4,0-2.6-0.3-3.8-0.8s-2.1-1.3-2.9-2.2c-0.8-0.9-1.4-1.9-1.9-3.1c-0.4-1.2-0.7-2.3-0.7-3.5
		c0-1.3,0.2-2.5,0.7-3.6c0.5-1.2,1.1-2.2,1.9-3.1c0.8-0.9,1.8-1.6,3-2.1c1.1-0.5,2.4-0.8,3.7-0.8c1.4,0,2.6,0.3,3.8,0.8
		c1.1,0.6,2.1,1.3,2.9,2.2s1.4,1.9,1.9,3.1c0.4,1.2,0.7,2.3,0.7,3.5c0,1.3-0.2,2.5-0.7,3.6c-0.5,1.1-1.1,2.2-1.9,3s-1.8,1.6-2.9,2.1
		C-170.8,269.8-172,270-173.3,270z M-178.7,260.4c0,0.8,0.1,1.6,0.4,2.4c0.2,0.8,0.6,1.4,1.1,2c0.5,0.6,1,1.1,1.7,1.4
		c0.7,0.4,1.4,0.5,2.3,0.5c0.9,0,1.7-0.2,2.3-0.5c0.7-0.4,1.2-0.8,1.7-1.5c0.5-0.6,0.8-1.3,1-2c0.2-0.8,0.4-1.5,0.4-2.3
		c0-0.8-0.1-1.6-0.4-2.4c-0.3-0.8-0.6-1.4-1.1-2s-1-1.1-1.7-1.4c-0.7-0.3-1.4-0.5-2.3-0.5c-0.9,0-1.7,0.2-2.3,0.5
		c-0.7,0.4-1.2,0.8-1.7,1.4c-0.5,0.6-0.8,1.3-1.1,2C-178.6,258.9-178.7,259.7-178.7,260.4z"/>
	<path d="M-155.9,269.9V251h8.6c0.9,0,1.7,0.2,2.5,0.5c0.8,0.4,1.4,0.8,2,1.4c0.5,0.6,1,1.3,1.3,2s0.5,1.5,0.5,2.3
		c0,1.2-0.3,2.3-0.9,3.3c-0.6,1-1.5,1.7-2.6,2.2l4.6,7.1h-4.3l-4.1-6.3h-3.7v6.3H-155.9z M-152.1,260.3h4.7c0.3,0,0.7-0.1,1-0.2
		s0.6-0.4,0.8-0.7c0.2-0.3,0.4-0.6,0.5-1s0.2-0.8,0.2-1.2c0-0.4-0.1-0.9-0.2-1.2s-0.3-0.7-0.6-1c-0.2-0.3-0.5-0.5-0.9-0.6
		c-0.3-0.2-0.6-0.2-1-0.2h-4.6V260.3z"/>
	<polygon points="-118.1,254.2 -124.3,254.2 -124.3,269.9 -128.1,269.9 -128.1,254.2 -134.3,254.2 -134.3,251 -118.1,251 	"/>
	<polygon points="-96.9,266.7 -96.9,269.9 -110.4,269.9 -110.4,251 -97.1,251 -97.1,254.2 -106.6,254.2 -106.6,258.8 -98.4,258.8 
		-98.4,261.8 -106.6,261.8 -106.6,266.7 	"/>
	<path d="M-88.6,269.9V251h8.6c0.9,0,1.7,0.2,2.5,0.5c0.8,0.4,1.4,0.8,2,1.4c0.5,0.6,1,1.3,1.3,2s0.5,1.5,0.5,2.3
		c0,1.2-0.3,2.3-0.9,3.3c-0.6,1-1.5,1.7-2.6,2.2l4.6,7.1H-77l-4.1-6.3h-3.7v6.3H-88.6z M-84.8,260.3h4.7c0.3,0,0.7-0.1,1-0.2
		s0.6-0.4,0.8-0.7c0.2-0.3,0.4-0.6,0.5-1s0.2-0.8,0.2-1.2c0-0.4-0.1-0.9-0.2-1.2s-0.3-0.7-0.6-1c-0.2-0.3-0.5-0.5-0.9-0.6
		c-0.3-0.2-0.6-0.2-1-0.2h-4.6V260.3z"/>
	
		<rect x="-345" y="256.8" transform="matrix(4.149186e-03 1 -1 4.149186e-03 -79.4737 600.7572)" class="st0" width="7.3" height="7.3"/>
</g>
</svg>
