<?xml version="1.0" encoding="UTF-8"?>
<svg width="136px" height="213px" viewBox="0 0 136 213" version="1.1" xmlns="http://www.w3.org/2000/svg" xmlns:xlink="http://www.w3.org/1999/xlink">
    <!-- Generator: Sketch 41.1 (35376) - http://www.bohemiancoding.com/sketch -->
    <title>Tyler</title>
    <desc>Created with Sketch.</desc>
    <defs></defs>
    <g id="Page-1" stroke="none" stroke-width="1" fill="none" fill-rule="evenodd">
        <g id="Tyler">
            <path d="M66,203 C66,203 123.5,209 123.5,115.5 C123.5,81.4155617 123.5,72 123.5,48.5 C123.5,25 82.8458483,22 66,22 C47.5704732,22 11.5,30 11.5,48.5 L11.5,115.5 C11.5,209 66,203 66,203 Z" id="Face" stroke="#332121" stroke-width="3" fill="#FEC689"></path>
            <path d="M25,95 C25,95 27.0831676,92.8542081 34.5,91 C36.5,90.5 55.5,89.5 55.5,89.5" id="left-brow" stroke-opacity="0.75" stroke="#281B13" stroke-width="4" stroke-linecap="round"></path>
            <path d="M80,95 C80,95 82.0831676,92.8542081 89.5,91 C91.5,90.5 110.5,89.5 110.5,89.5" id="left-brow-copy" stroke-opacity="0.75" stroke="#281B13" stroke-width="4" stroke-linecap="round" transform="translate(95.250000, 92.250000) scale(-1, 1) translate(-95.250000, -92.250000) "></path>
            <g id="lips" transform="translate(48.000000, 162.000000)">
                <path d="M19,21.5 C28.9411255,21.5 40,16.1944204 40,11.5 C40,6.80557963 28.9411255,0 19,0 C9.0588745,0 0,6.80557963 0,11.5 C0,16.1944204 9.0588745,21.5 19,21.5 Z" id="Oval-3" fill="#F59678"></path>
                <path d="M39,11 C39,11 26.7626953,13.5 20.5,13.5 C14.2373047,13.5 1,11 1,11" id="Line" stroke="#914F39" stroke-width="2" stroke-linecap="round"></path>
            </g>
            <g id="nose" transform="translate(52.000000, 109.000000)" fill="#D8A973">
                <g id="Layer_1">
                    <g id="Group">
                        <path d="M21.2487805,0.0514842301 C21.4202545,0.545732839 21.5882291,1.04684601 21.7702015,1.53766234 C21.9136797,1.9255102 22.0991516,2.29619666 22.2181336,2.68747681 C22.5015907,3.62792208 22.7885472,4.57179963 23.0195122,5.52597403 C23.3974549,7.08766234 23.740403,8.65621521 24.0868505,10.2247681 C24.3633086,11.4741187 24.6292683,12.7269017 24.9022269,13.9796846 C25.3606575,16.0733766 25.819088,18.1670686 26.2775186,20.2641929 C26.3930011,20.7893321 26.7184517,21.1909091 27.0893955,21.5615955 C27.7123012,22.1828386 28.4366914,22.6908163 29.1575822,23.1919295 C30.3509014,24.0225417 31.3377519,25.0316327 32.0271474,26.3050093 C32.6710498,27.4925788 33.0349947,28.7522263 32.9545069,30.1079777 C32.9055143,30.9214286 32.7025451,31.7005566 32.3141039,32.4350649 C32.0306469,32.9739332 31.6597031,33.4269944 31.2222694,33.8525974 C30.2424178,34.8067718 29.1050901,35.4520408 27.733298,35.6785714 C27.0369035,35.7918367 26.340509,35.7918367 25.6441145,35.7128942 C25.2766702,35.6717069 24.9092259,35.6202226 24.5417815,35.575603 L24.5417815,35.5241187 C24.8147402,35.4794991 25.0876988,35.4348794 25.3606575,35.3868275 C26.7919406,35.1362709 28.1812301,34.7621521 29.4375398,34.0173469 C30.392895,33.4510204 31.15228,32.7062152 31.5792153,31.669666 C31.8206787,31.0793135 31.897667,30.4649351 31.8626723,29.8368275 C31.7681866,28.2476809 31.0717922,26.8953618 30.1164369,25.6494434 C29.5145281,24.8634508 28.8111347,24.1701299 27.964263,23.6346939 C27.3868505,23.2674397 26.7849417,22.9448052 26.2040297,22.5844156 C25.7246023,22.2858071 25.2416755,21.9597403 25.0317073,21.4174397 C24.8707317,21.0021336 24.7867444,20.5490724 24.7097561,20.106308 C24.5277837,19.0525974 24.3878049,17.9920223 24.195334,16.941744 C23.8663839,15.153525 23.509438,13.3721707 23.1664899,11.587384 C22.9040297,10.2350649 22.6345705,8.88274583 22.3861082,7.53042672 C22.1516437,6.25361781 21.9416755,4.97337662 21.7247084,3.69656772 C21.64772,3.24007421 21.5812301,2.78014842 21.5147402,2.32365492 C21.416755,1.63033395 21.3222694,0.933580705 21.2242842,0.24025974 C21.2172853,0.178478664 21.2137858,0.116697588 21.2102863,0.0583487941 C21.2242842,0.0514842301 21.2347826,0.0514842301 21.2487805,0.0514842301 Z" id="Shape"></path>
                        <path d="M8.45821845,35.5206865 C7.58685048,35.7060297 6.7154825,35.8055659 5.83361612,35.7403525 C5.15821845,35.6888683 4.50731707,35.5447124 3.88791092,35.283859 C2.93255567,34.8857143 2.12767762,34.2782004 1.44178155,33.5230983 C1.08133616,33.1283859 0.7873807,32.6890538 0.580911983,32.1810761 C0.384941676,31.7005566 0.199469777,31.2269017 0.115482503,30.7189239 C-0.0804878049,29.5416512 0.0874867444,28.4055659 0.514422057,27.3003711 C1.1583245,25.6357143 2.25365854,24.317718 3.72343584,23.2846011 C4.3533404,22.8418367 4.95874867,22.3647495 5.56415695,21.8910946 C6.28854719,21.3213358 6.69798515,20.5868275 6.87995758,19.680705 C7.32089077,17.4943414 7.81431601,15.3182746 8.2902439,13.1422078 C8.75917285,10.990167 9.21410392,8.83812616 9.71102863,6.69294991 C9.99798515,5.45046382 10.3339343,4.21827458 10.6838812,2.99294991 C10.8448568,2.42662338 11.1108165,1.89118738 11.3137858,1.3351577 C11.4502651,0.967903525 11.5692471,0.590352505 11.695228,0.219666048 C11.7162248,0.15445269 11.7407211,0.0926716141 11.8002121,0.030890538 C11.7757158,0.202504638 11.7512195,0.37755102 11.7232238,0.549165121 C11.7092259,0.638404453 11.6917285,0.727643785 11.6777306,0.816883117 C11.6567338,0.940445269 11.6322375,1.06057514 11.6217391,1.18413729 C11.6077413,1.30769944 11.6182397,1.43469388 11.6007423,1.55482375 C11.5727466,1.74016698 11.5272534,1.92207792 11.4957582,2.10742115 C11.4607635,2.30649351 11.4257688,2.50899814 11.3977731,2.71150278 C11.2997879,3.37736549 11.2158006,4.0432282 11.1073171,4.70565863 C10.9708378,5.55 10.82386,6.39777365 10.6698834,7.23868275 C10.480912,8.26836735 10.2814422,9.29461967 10.0854719,10.320872 C9.89300106,11.3128015 9.68653234,12.304731 9.50106045,13.3000928 C9.147614,15.1878479 8.79766702,17.075603 8.45471898,18.9633581 C8.36373277,19.4679035 8.29374337,19.9793135 8.23775186,20.4907236 C8.1397667,21.3899814 7.67433722,22.0489796 6.90445387,22.5123377 C6.32004242,22.8658627 5.72163309,23.2022263 5.14422057,23.5660482 C3.84591729,24.3829314 2.86956522,25.498423 2.11018028,26.8026902 C1.64125133,27.6127087 1.30180276,28.4742115 1.17932131,29.4043599 C1.09533404,30.0290353 1.14432662,30.6434137 1.27730647,31.2612245 C1.37529162,31.717718 1.62375398,32.095269 1.86871686,32.47282 C2.40763521,33.3034323 3.20201485,33.8457328 4.07338282,34.2884972 C5.12322375,34.8205009 6.25005302,35.1225417 7.40487805,35.3422078 C7.75132556,35.4074212 8.104772,35.4589054 8.45821845,35.5206865 Z" id="Shape"></path>
                        <path d="M5.46617179,32.7988868 C6.1835631,32.3938776 6.89395546,32.1158627 7.66733828,32.0163265 C8.74517497,31.875603 9.74602333,32.1158627 10.6558855,32.6821892 C11.2402969,33.0460111 11.7897137,33.457885 12.3601273,33.8423006 C13.1090138,34.346846 13.8613998,34.7038033 14.6732768,35.1088126 C15.9610817,35.7506494 17.2278897,35.7540816 18.466702,35.0607607 C19.2890774,34.5974026 20.0764581,34.1786642 20.8778367,33.677551 C21.2662778,33.433859 21.6442206,33.1730056 22.0291622,32.922449 C22.2741251,32.764564 22.5050901,32.5826531 22.7675504,32.4556586 C23.4814422,32.1055659 24.2373277,31.9270872 25.0422057,31.985436 C25.8820785,32.0472171 26.6554613,32.3252319 27.3903499,32.7130798 C27.4218452,32.7302412 27.4498409,32.7474026 27.4778367,32.7679963 C27.4848356,32.7748609 27.4883351,32.7851577 27.502333,32.8194805 C27.2573701,32.8503711 27.0194062,32.8846939 26.7779427,32.9155844 C25.700106,33.0460111 24.6432662,33.2691095 23.6284199,33.6672542 C22.526087,34.0997217 21.535737,34.7141002 20.5978791,35.4211503 C19.9014846,35.9497217 19.1910923,36.111039 18.3967126,36.4988868 C17.1264051,37.1201299 15.8700954,37.1544527 14.5997879,36.5366419 C13.7319194,36.1144712 12.969035,35.8501855 12.2061506,35.2804267 C11.4852598,34.7415584 10.7258749,34.2679035 9.9,33.8937848 C8.81866384,33.4029685 7.68133616,33.1077922 6.50551432,32.9567718 C6.22205726,32.9190167 5.93860021,32.8881262 5.65514316,32.8503711 C5.60965005,32.8435065 5.56065748,32.8263451 5.46617179,32.7988868 Z" id="Shape"></path>
                    </g>
                </g>
            </g>
            <g id="hair" transform="translate(2.000000, 0.000000)">
                <path d="M87.1863618,4.16075269 C85.9841995,3.04731183 84.7820372,1.99247312 83.129064,0.527419355 C84.8571723,0.996236559 86.2096049,1.17204301 87.1863618,1.69946237 C90.6425784,3.51612903 94.0236599,5.3327957 97.2544712,7.38387097 C101.462039,10.138172 105.594472,13.0096774 109.5015,16.0569892 C111.004203,17.1704301 112.206365,18.694086 112.882581,20.2177419 C113.333392,21.1553763 112.506906,22.4446237 112.582041,23.9096774 C113.032852,23.2650538 113.483662,22.6204301 113.859338,21.9758065 C114.235014,22.0344086 114.61069,22.0930108 114.986365,22.1516129 C115.662582,24.144086 116.789609,26.077957 116.939879,28.0704301 C117.090149,30.1215054 116.188528,32.2311828 115.737717,34.5166667 C117.24042,34.5166667 118.743123,34.3408602 120.17069,34.5166667 C126.557178,35.3956989 131.741503,40.0252688 132.567989,45.8268817 C134.596638,60.0086022 133.995557,74.1317204 127.458799,87.6102151 C124.829069,92.9430108 124.97934,98.3344086 124.227988,103.725806 C124.002583,105.249462 123.852312,106.773118 123.702042,108.296774 C123.049189,107.855376 123.5,106.144624 123.5,105.5 C123.424865,95.2446237 118.968528,96.5 116.338798,76.5344086 C115.812852,74.9521505 116.338798,73.0768817 116.714474,71.3774194 C117.39069,67.8026882 118.743123,64.227957 118.968528,60.5946237 C119.494474,53.0349462 116.714474,49.4016129 107.848527,44.8892473 C95.075552,50.9252688 80.7247393,51.5698925 66.2987916,51.7456989 C54.2020333,51.9215054 42.105275,51.7456989 30.0836519,49.9876344 C27.6793272,49.6360215 24.974462,49.1672043 22.6452725,49.5774194 C13.027974,51.5112903 8.67013563,58.0747312 11.976082,65.4 C13.027974,67.744086 14.7560823,69.8537634 15.9582447,72.1392473 C16.4090555,73.0182796 16.6247616,74.184065 16.4090555,75.0107527 C11.976082,92 9.12702717,95.9903226 8,106.597312 C7.92486486,107.300538 7.24256788,108.120968 7.16743274,108.824194 C6.94202731,108.941398 9.1209465,108.706989 8.89554107,108.824194 C8.29445991,108.062366 7.0922976,107.300538 7.16743274,106.597312 C7.61824361,95.6973118 4.68797297,85.2075269 1.53229689,74.7763441 C0.555540011,71.5532258 0.330134577,68.0956989 0.179864288,64.7553763 C-0.0455411458,59.4225806 -0.0455411458,54.0897849 0.104729144,48.7569892 C0.179864288,47.1747312 1.00635088,45.6510753 1.60743204,44.1274194 C3.86148638,38.15 6.11554071,32.1725806 8.36959505,26.1951613 C10.0977034,21.5655914 13.9295958,18.1666667 18.738245,15.2365591 C19.790137,15.8811828 20.6917588,16.4672043 22.0441914,17.2290323 C22.2695968,15.8225806 22.4950022,14.5919355 22.5701374,13.4198925 C22.7204077,11.4274194 24.0728403,10.3725806 26.4771649,11.0758065 C30.3841924,12.1892473 32.9387874,10.9 35.4933823,9.02473118 C35.869058,8.79032258 36.2447337,8.61451613 36.5452743,8.32150538 C40.9782478,4.21935484 46.4631134,2.51989247 53.3004116,3.63333333 C53.6760873,3.69193548 54.051763,3.63333333 54.4274387,3.63333333 C54.5025739,3.63333333 54.577709,3.57473118 55.1787902,3.28172043 C53.4506818,2.81290323 52.0982492,2.46129032 50.4452761,1.99247312 C54.3523036,0.117204301 58.184196,1.17204301 62.0160883,1.40645161 C66.7496024,1.75806452 71.4831166,1.99247312 76.2166307,2.46129032 C78.3955499,2.69569892 80.5744691,3.28172043 82.6782531,3.75053763 C84.1058209,4.04354839 85.4582535,4.45376344 86.8106861,4.80537634 C87.1112266,4.51236559 87.1863618,4.33655914 87.1863618,4.16075269 Z M73.6620357,36.0989247 C70.9571705,31.3521505 66.3739267,27.9532258 60.3631151,25.6677419 C62.6171695,27.3672043 65.1717644,28.8322581 67.4258187,30.5317204 C69.6798731,32.2897849 71.5582517,34.2236559 73.6620357,36.0989247 Z M92.2955516,35.1612903 C88.0879835,30.7075269 82.0771719,28.5978495 75.6906847,26.9569892 C78.470685,28.3048387 81.4760908,29.3010753 84.180956,30.6489247 C87.0360915,31.938172 89.5906864,33.6376344 92.2955516,35.1612903 Z M38.6490583,34.2236559 L39.4755449,34.2236559 C38.7241935,29.1252688 37.972842,24.0268817 37.1463555,18.9284946 C36.9960852,18.9284946 36.8458149,18.9284946 36.6955446,18.9870968 C37.3717609,24.0268817 37.972842,29.1252688 38.6490583,34.2236559 Z M61.339872,27.4844086 C61.2647369,27.5430108 61.1896017,27.6016129 61.1144666,27.6602151 C64.0447372,29.8284946 66.9750079,31.938172 68.7031162,33.1688172 C67.050143,31.938172 64.1950075,29.7112903 61.339872,27.4844086 Z" id="Shape" fill="#503625"></path>
                <path d="M73.5,36 C71.2853107,34.0224719 68.8079096,31.9213483 66.4350282,30.1292135 C64.0621469,28.3370787 61.4519774,26.7303371 59,25 C62.4197511,26.3025279 65.8988203,28.101774 68.5,30.1292135 C71.1011797,32.156653 72.1914304,33.6996323 73.5,36 Z" id="Shape" fill="#635858"></path>
                <path d="M92.5,35.5 C90,34.5 86,32 83,30.5 C80,29 77.6210793,28.2303371 75,26.5 C78.655596,27.8025279 83.5,29 86,30.5 C88.5,32 91.1011842,33.1996323 92.5,35.5 Z" id="Shape-Copy" fill="#635858"></path>
                <path d="M38.5,34.2951613 C37.8162011,29.1967742 37.1837989,24.0983871 36.5,19 C36.6519553,19 37,18.5 37.5,19 C38.2597765,24.0983871 38.975419,29.1967742 39.8111732,34.2951613 C39.5072626,34.3537634 38.8039106,34.2951613 38.5,34.2951613 Z" id="Shape" fill="#635858"></path>
                <path d="M61,27 C63.8871508,29.2268817 66.8284916,31.7107527 68.5,33 C66.752514,31.7693548 63.9631285,30.1096774 61,28 C61,27 60.9240223,27.1172043 61,27 Z" id="Shape" fill="#635858"></path>
            </g>
            <path d="M13.3775718,121.196122 C13.0708634,144.966019 14.451051,147.969146 36.9941151,161.617667 C43.4349905,150.882875 50.4892827,148.429208 64.2911587,152.569771 C66.1314088,153.029834 68.2783673,153.029834 70.1186174,152.416417 C83.4604309,148.429208 90.514723,150.882875 97.2623068,161.617667 C119.805371,147.815792 121.185559,144.812665 120.725496,121.196122 C121.645621,121.196122 122.412392,122.349476 123.332517,122.349476 C124.252642,124.956497 125.63283,107.563518 125.939538,110.170539 C126.552955,117.071477 127.319726,122.972415 126.859663,129.719999 C125.019413,152.569771 115.3581,173.119231 103.703182,192.135149 C94.80864,206.703796 80.3933473,214.524859 62.7576169,212.3779 C42.6682197,209.924233 30.7065938,196.735774 22.8855308,179.253398 C19.2050305,170.818918 16.137947,162.231084 12.6108009,153.796604 C6.32327961,138.614541 5.73962481,125.966019 8.5,110.170539 C8.80670835,108.330289 10.8865833,119.34025 11.5,117.5 C12.2667709,117.193292 12.4574467,121.196122 13.3775718,121.196122 Z M88,173.5 C88,172.5 87.2942853,169.985064 84.3805559,169.985064 C73.6457635,169.525001 63.0643253,169.525001 52.3295328,169.985064 C48.9557409,170.138418 48,174 48,174 C47.5,175.5 47.5,184.509248 47.5,184.378125 C47.5,184.509248 49.9830946,198.847628 57,198.847628 C59,198.847628 60.3039501,199.767753 61.070721,193.78694 C61.3774293,191.486627 64.597867,188.572898 66.8981797,187.959481 C71.0387425,187.039356 73.185701,189.493023 73.3390552,194.247002 C73.3390552,195.933898 75.3326595,198.540919 76.8662012,198.847628 C80.2882049,199.573507 88.5,191.494004 88.5,184.247002 C88.5,177 88.744231,177.124968 88,173.5 Z" id="beard" fill="#281B13"></path>
            <path d="M14,120 C14,120 14.5,127.5 18.5,132 C22.5,136.5 26,137 26,137" id="left-cheek" stroke-opacity="0.5" stroke="#D8A973" stroke-width="2" stroke-linecap="round"></path>
            <path d="M109,120 C109,120 109.5,127.5 113.5,132 C117.5,136.5 121,137 121,137" id="right-cheek" stroke-opacity="0.5" stroke="#D8A973" stroke-width="2" stroke-linecap="round" transform="translate(115.000000, 128.500000) scale(-1, 1) translate(-115.000000, -128.500000) "></path>
            <g id="Glasses" transform="translate(0.000000, 92.000000)">
                <rect id="Left-bracket" fill="#000000" x="0" y="4" width="11" height="16"></rect>
                <rect id="right-bracket" fill="#000000" x="125" y="4" width="11" height="16"></rect>
                <g id="Bridge" transform="translate(57.000000, 0.000000)" stroke="#000000" stroke-linecap="square">
                    <path d="M7.5,9.5 C7.5,9.5 8.75,8.5 11.25,8.5 C13.75,8.5 15,9.5 15,9.5" id="Line" stroke-width="2"></path>
                    <path d="M0.5,1 L22.5,1" id="Line" stroke-width="4"></path>
                </g>
                <path d="M37,43 C51.9116882,43 59.5,31 63,18.5 C64.2488811,14.0397104 65,7 62,3.5 C59,-1.44328993e-15 45.750043,0.5 37,0.5 C26.6472603,0.5 14,-0.5 11,7.5 C8,15.5 9.75897692,20.6906051 11,24 C14,32 22.0883118,43 37,43 Z" id="left-glass" stroke="#000000" stroke-width="4"></path>
                <path d="M100,43 C114.911688,43 122.5,31 126,18.5 C127.248881,14.0397104 128,7 125,3.5 C122,-1.44328993e-15 108.750043,0.5 100,0.5 C89.6472603,0.5 77,-0.5 74,7.5 C71,15.5 72.7589769,20.6906051 74,24 C77,32 85.0883118,43 100,43 Z" id="right-glass" stroke="#000000" stroke-width="4" transform="translate(99.720450, 21.730000) scale(-1, 1) translate(-99.720450, -21.730000) "></path>
            </g>
            <g id="right-eye" transform="translate(81.000000, 97.000000)">
                <path d="M5,8.5 C6.38071187,8.5 7,6.65685425 7,5 C7,3.34314575 5.88071187,2 4.5,2 C3.11928813,2 1.5,3.84314575 1.5,5.5 C1.5,7.15685425 3.61928813,8.5 5,8.5 Z" id="Oval-2" fill="#FFFFFF"></path>
                <path d="M19.9518989,8.5 C21.3326107,8.5 20.9518989,6.65685425 20.9518989,5 C20.9518989,3.34314575 20.8326107,2 19.4518989,2 C18.071187,2 16.4518989,3.84314575 16.4518989,5.5 C16.4518989,7.15685425 18.571187,8.5 19.9518989,8.5 Z" id="Oval-2-Copy" fill="#FFFFFF" transform="translate(18.725949, 5.250000) scale(-1, 1) translate(-18.725949, -5.250000) "></path>
                <path d="M0.161764706,5.5 C0.161764706,5.5 5.01470588,1.96034879e-16 11.3235294,0 C17.6323529,0 21.8382353,5.5 21.8382353,5.5" id="Line" stroke="#1D1E20" stroke-width="2" stroke-linecap="round"></path>
                <path d="M0.161764706,11 C0.161764706,11 5.01470588,5.5 11.3235294,5.5 C17.6323529,5.5 21.8382353,11 21.8382353,11" id="Line-Copy" stroke="#1D1E20" stroke-width="2" stroke-linecap="round" transform="translate(11.000000, 8.250000) scale(1, -1) translate(-11.000000, -8.250000) "></path>
                <circle id="Oval" stroke="#1D1E20" stroke-width="2" fill="#2EADEB" cx="11.3235294" cy="5.5" r="5.5"></circle>
                <ellipse id="Oval-Copy" fill="#1D1E20" cx="11.5502032" cy="5.55020321" rx="2.55020321" ry="2.55020321"></ellipse>
                <path d="M12,4 C12,4 12.2691898,4.14167969 12.3825305,4.25502032 C12.4958711,4.36836096 12.6501768,4.6501768 12.6501768,4.6501768" id="Line" stroke-opacity="0.8" stroke="#FFFFFF" stroke-linecap="round"></path>
            </g>
            <g id="left-eye" transform="translate(44.000000, 102.500000) scale(-1, 1) translate(-44.000000, -102.500000) translate(33.000000, 97.000000)">
                <path d="M5,8.5 C6.38071187,8.5 7,6.65685425 7,5 C7,3.34314575 5.88071187,2 4.5,2 C3.11928813,2 1.5,3.84314575 1.5,5.5 C1.5,7.15685425 3.61928813,8.5 5,8.5 Z" id="Oval-2" fill="#FFFFFF"></path>
                <path d="M19.9518989,8.5 C21.3326107,8.5 20.9518989,6.65685425 20.9518989,5 C20.9518989,3.34314575 20.8326107,2 19.4518989,2 C18.071187,2 16.4518989,3.84314575 16.4518989,5.5 C16.4518989,7.15685425 18.571187,8.5 19.9518989,8.5 Z" id="Oval-2-Copy" fill="#FFFFFF" transform="translate(18.725949, 5.250000) scale(-1, 1) translate(-18.725949, -5.250000) "></path>
                <path d="M0.161764706,5.5 C0.161764706,5.5 5.01470588,1.96034879e-16 11.3235294,0 C17.6323529,0 21.8382353,5.5 21.8382353,5.5" id="Line" stroke="#1D1E20" stroke-width="2" stroke-linecap="round"></path>
                <path d="M0.161764706,11 C0.161764706,11 5.01470588,5.5 11.3235294,5.5 C17.6323529,5.5 21.8382353,11 21.8382353,11" id="Line-Copy" stroke="#1D1E20" stroke-width="2" stroke-linecap="round" transform="translate(11.000000, 8.250000) scale(1, -1) translate(-11.000000, -8.250000) "></path>
                <circle id="Oval" stroke="#1D1E20" stroke-width="2" fill="#2EADEB" cx="11.3235294" cy="5.5" r="5.5"></circle>
                <ellipse id="Oval-Copy" fill="#1D1E20" cx="11.5502032" cy="5.55020321" rx="2.55020321" ry="2.55020321"></ellipse>
                <path d="M12,4 C12,4 12.2691898,4.14167969 12.3825305,4.25502032 C12.4958711,4.36836096 12.6501768,4.6501768 12.6501768,4.6501768" id="Line" stroke-opacity="0.8" stroke="#FFFFFF" stroke-linecap="round"></path>
            </g>
        </g>
    </g>
</svg>